<mxfile host="app.diagrams.net" modified="2023-06-19T13:46:37.694Z" agent="Mozilla/5.0 (Windows NT 10.0; Win64; x64; rv:109.0) Gecko/20100101 Firefox/113.0" etag="pi3kv-VNTDYJLmMbqD0D" version="21.2.9" type="device">
  <diagram name="Seite-1" id="MCAPF7ZMQ2J2KUqzHC1T">
    <mxGraphModel dx="3617" dy="1257" grid="1" gridSize="10" guides="1" tooltips="1" connect="1" arrows="1" fold="1" page="1" pageScale="1" pageWidth="827" pageHeight="1169" math="0" shadow="0">
      <root>
        <mxCell id="0" />
        <mxCell id="1" parent="0" />
        <mxCell id="Y8IsOClZezA-_m8lb8lZ-7" style="edgeStyle=orthogonalEdgeStyle;rounded=0;orthogonalLoop=1;jettySize=auto;html=1;entryX=0;entryY=0.5;entryDx=0;entryDy=0;" edge="1" parent="1" source="Y8IsOClZezA-_m8lb8lZ-1" target="Y8IsOClZezA-_m8lb8lZ-2">
          <mxGeometry relative="1" as="geometry" />
        </mxCell>
        <mxCell id="Y8IsOClZezA-_m8lb8lZ-1" value="&lt;div&gt;Github&lt;/div&gt;&lt;div&gt;-&amp;nbsp; Hosts Code&lt;br&gt;&lt;/div&gt;- GitHub Action -&amp;gt; Build Dockerimage" style="rounded=1;whiteSpace=wrap;html=1;" vertex="1" parent="1">
          <mxGeometry x="80" y="110" width="340" height="220" as="geometry" />
        </mxCell>
        <mxCell id="Y8IsOClZezA-_m8lb8lZ-2" value="&lt;div&gt;DockerHub&lt;/div&gt;&lt;div&gt;- Repository&lt;br&gt;&lt;/div&gt;" style="rounded=1;whiteSpace=wrap;html=1;" vertex="1" parent="1">
          <mxGeometry x="560" y="110" width="340" height="220" as="geometry" />
        </mxCell>
        <mxCell id="Y8IsOClZezA-_m8lb8lZ-9" style="edgeStyle=orthogonalEdgeStyle;rounded=0;orthogonalLoop=1;jettySize=auto;html=1;" edge="1" parent="1" source="Y8IsOClZezA-_m8lb8lZ-3" target="Y8IsOClZezA-_m8lb8lZ-4">
          <mxGeometry relative="1" as="geometry" />
        </mxCell>
        <mxCell id="Y8IsOClZezA-_m8lb8lZ-3" value="&lt;div&gt;Windows Host&lt;/div&gt;&lt;div&gt;- Vagrant&lt;br&gt;&lt;/div&gt;" style="rounded=1;whiteSpace=wrap;html=1;" vertex="1" parent="1">
          <mxGeometry x="560" y="410" width="340" height="220" as="geometry" />
        </mxCell>
        <mxCell id="Y8IsOClZezA-_m8lb8lZ-15" style="edgeStyle=orthogonalEdgeStyle;rounded=0;orthogonalLoop=1;jettySize=auto;html=1;entryX=0.997;entryY=0.436;entryDx=0;entryDy=0;entryPerimeter=0;" edge="1" parent="1" source="Y8IsOClZezA-_m8lb8lZ-4" target="Y8IsOClZezA-_m8lb8lZ-2">
          <mxGeometry relative="1" as="geometry">
            <Array as="points">
              <mxPoint x="1190" y="206" />
            </Array>
          </mxGeometry>
        </mxCell>
        <mxCell id="Y8IsOClZezA-_m8lb8lZ-4" value="Virtualbox&lt;br&gt;- docker Service" style="rounded=1;whiteSpace=wrap;html=1;" vertex="1" parent="1">
          <mxGeometry x="1030" y="410" width="340" height="220" as="geometry" />
        </mxCell>
        <mxCell id="Y8IsOClZezA-_m8lb8lZ-5" value="Webserver" style="rounded=1;whiteSpace=wrap;html=1;" vertex="1" parent="1">
          <mxGeometry x="1060" y="554" width="120" height="60" as="geometry" />
        </mxCell>
        <mxCell id="Y8IsOClZezA-_m8lb8lZ-10" style="edgeStyle=orthogonalEdgeStyle;rounded=0;orthogonalLoop=1;jettySize=auto;html=1;" edge="1" parent="1" source="Y8IsOClZezA-_m8lb8lZ-6" target="Y8IsOClZezA-_m8lb8lZ-5">
          <mxGeometry relative="1" as="geometry" />
        </mxCell>
        <mxCell id="Y8IsOClZezA-_m8lb8lZ-6" value="Proxy" style="rounded=1;whiteSpace=wrap;html=1;" vertex="1" parent="1">
          <mxGeometry x="1230" y="554" width="120" height="60" as="geometry" />
        </mxCell>
        <mxCell id="Y8IsOClZezA-_m8lb8lZ-12" style="edgeStyle=orthogonalEdgeStyle;rounded=0;orthogonalLoop=1;jettySize=auto;html=1;entryX=0;entryY=0.5;entryDx=0;entryDy=0;" edge="1" parent="1" source="Y8IsOClZezA-_m8lb8lZ-11" target="Y8IsOClZezA-_m8lb8lZ-1">
          <mxGeometry relative="1" as="geometry" />
        </mxCell>
        <mxCell id="Y8IsOClZezA-_m8lb8lZ-11" value="&lt;div&gt;Developer&lt;br&gt;- Develops Application&lt;br&gt;&lt;/div&gt;" style="rounded=1;whiteSpace=wrap;html=1;" vertex="1" parent="1">
          <mxGeometry x="-350" y="420" width="340" height="220" as="geometry" />
        </mxCell>
        <mxCell id="Y8IsOClZezA-_m8lb8lZ-14" style="edgeStyle=orthogonalEdgeStyle;rounded=0;orthogonalLoop=1;jettySize=auto;html=1;entryX=1;entryY=0.5;entryDx=0;entryDy=0;" edge="1" parent="1" source="Y8IsOClZezA-_m8lb8lZ-13" target="Y8IsOClZezA-_m8lb8lZ-6">
          <mxGeometry relative="1" as="geometry" />
        </mxCell>
        <mxCell id="Y8IsOClZezA-_m8lb8lZ-13" value="Customer&lt;br&gt;- Can Access Project" style="rounded=1;whiteSpace=wrap;html=1;" vertex="1" parent="1">
          <mxGeometry x="1610" y="410" width="340" height="220" as="geometry" />
        </mxCell>
      </root>
    </mxGraphModel>
  </diagram>
</mxfile>
